<?xml version="1.0" encoding="UTF-8"?>
<svg id="_レイヤー_2" data-name="レイヤー 2" xmlns="http://www.w3.org/2000/svg" viewBox="0 0 504.07 767.88">
  <defs>
    <style>
      .cls-1 {
        fill: #231815;
      }
    </style>
  </defs>
  <g id="_レイヤー_1-2" data-name="レイヤー 1">
    <path class="cls-1" d="M482.18,146.24l-111.04,40.68c-6.72,2.46-12.01,7.77-14.46,14.49l-100,274.75c-4.2,11.54-20.96,10.07-23.09-2.02l-36.34-206.08c-1.71-9.69,3.79-19.21,13.03-22.58l137.06-49.88c8.16-2.97,14.12-10.08,15.61-18.64l27.57-157.87c2.15-12.33-9.84-22.38-21.61-18.1L101.62,98.29c-8.15,2.97-14.1,10.06-15.61,18.6L.26,603.27c-2.18,12.34,9.82,22.41,21.6,18.13l95.59-34.73c11.78-4.28,23.77,5.79,21.59,18.13l-25.42,143.94c-2.18,12.35,9.82,22.42,21.6,18.13l267.58-97.39c8.16-2.97,14.11-10.07,15.61-18.62l85.42-486.52c2.17-12.36-9.86-22.42-21.64-18.1ZM274.24,599.11c-1.9,21.65-20.98,37.66-42.63,35.77s-37.66-20.98-35.77-42.63c.44-5.01,1.81-9.71,3.91-13.97.18-.4.37-.8.57-1.2.18-.4.37-.8.57-1.2.18-.4.37-.8.57-1.2.18-.4.37-.8.57-1.2.18-.4.37-.8.57-1.2.18-.4.37-.8.57-1.2.18-.4.37-.8.57-1.2.18-.4.37-.8.57-1.2.18-.4.37-.8.57-1.2.18-.4.37-.8.57-1.2.18-.4.37-.8.57-1.2.18-.4.37-.8.57-1.2.18-.4.37-.8.57-1.2.18-.4.37-.8.57-1.2.18-.4.37-.8.57-1.2.18-.4.37-.8.57-1.2.18-.4.37-.8.57-1.2.18-.4.37-.8.57-1.2.18-.4.37-.8.57-1.2.18-.4.37-.8.57-1.2.18-.4.37-.8.57-1.2.18-.4.37-.8.57-1.2.18-.4.37-.8.57-1.2.18-.4.37-.8.57-1.2.18-.4.37-.8.57-1.19.18-.4.37-.8.57-1.2.18-.4.37-.8.57-1.2.18-.4.37-.8.57-1.2.18-.4.37-.8.57-1.2.18-.4.37-.8.57-1.19.18-.41.37-.8.57-1.2.18-.41.37-.8.57-1.2.18-.4.37-.8.57-1.19.18-.41.37-.8.57-1.2.18-.41.37-.8.57-1.2.22-.51.46-1.02.72-1.51.18-.39.35-.79.55-1.16.18-.4.35-.79.56-1.17.18-.4.35-.79.56-1.17.18-.4.35-.79.56-1.17.18-.4.35-.79.56-1.17.18-.4.35-.79.56-1.17.18-.4.35-.79.56-1.17.18-.4.35-.79.56-1.17.17-.4.35-.79.56-1.17.17-.4.35-.79.56-1.17.17-.4.35-.79.56-1.17.17-.4.35-.79.56-1.17.17-.4.35-.79.56-1.17.17-.4.35-.79.56-1.17.17-.4.35-.79.56-1.17.17-.4.35-.8.56-1.18.17-.41.36-.81.57-1.2.17-.41.36-.81.57-1.19,1.94-4.76,6.81-7.9,12.19-7.42,5.33.48,9.53,4.38,10.63,9.35.14.41.26.83.36,1.26.14.41.26.83.36,1.26.14.41.26.83.36,1.26.14.41.26.83.36,1.26.14.41.26.83.36,1.25.14.41.25.83.36,1.26.14.41.25.83.36,1.26.14.41.25.83.36,1.25.14.41.25.83.36,1.26.14.41.25.83.36,1.25.14.41.25.83.36,1.26.14.41.25.83.36,1.25.14.41.25.83.36,1.25.14.41.25.83.36,1.25.14.41.25.83.36,1.25.14.41.25.83.36,1.25.14.41.25.83.36,1.25.13.39.23.79.34,1.19.17.5.31,1,.44,1.51.14.42.25.85.36,1.28.14.42.25.85.36,1.28.13.42.25.85.36,1.28.13.42.25.85.36,1.28.13.42.25.85.36,1.28.13.42.25.85.36,1.28.13.42.25.85.36,1.28.13.42.25.85.36,1.28.13.42.25.85.36,1.28.13.42.25.85.36,1.28.13.42.25.85.36,1.28.13.42.25.85.36,1.28.13.42.25.85.36,1.28.13.42.25.85.36,1.28.13.42.25.85.36,1.28.13.42.25.85.36,1.28.13.42.25.85.36,1.28.13.42.25.85.36,1.28.13.42.25.85.36,1.28.13.42.25.85.36,1.28.13.42.25.85.36,1.28.13.42.25.85.36,1.28.13.42.25.85.36,1.28.13.42.25.85.36,1.28.13.42.25.85.36,1.28.13.42.25.85.36,1.28.13.42.25.85.36,1.28.13.42.25.85.36,1.28.13.42.25.85.36,1.28.13.42.25.85.36,1.28.13.42.25.85.36,1.28.13.42.25.85.36,1.28.13.42.25.85.36,1.28.13.42.25.85.36,1.28.13.42.25.85.36,1.28,1.38,4.62,1.94,9.58,1.49,14.68Z"/>
  </g>
</svg>