<?xml version="1.0" encoding="UTF-8"?>
<svg id="_レイヤー_1" data-name="レイヤー 1" xmlns="http://www.w3.org/2000/svg" viewBox="0 0 2400 1000">
  <defs>
    <style>
      .cls-1 {
        fill: #00001e;
      }
    </style>
  </defs>
  <path class="cls-1" d="M678.93,262.3l-111.04,40.68c-6.72,2.46-12.01,7.77-14.46,14.49l-100,274.75c-4.2,11.54-20.96,10.07-23.09-2.02l-36.34-206.08c-1.71-9.69,3.79-19.21,13.03-22.58l137.06-49.88c8.16-2.97,14.12-10.08,15.61-18.64l27.57-157.87c2.15-12.33-9.84-22.38-21.61-18.1l-267.29,97.29c-8.15,2.97-14.1,10.06-15.61,18.6l-85.76,486.38c-2.18,12.34,9.82,22.41,21.6,18.13l95.59-34.73c11.78-4.28,23.77,5.79,21.59,18.13l-25.42,143.94c-2.18,12.35,9.82,22.42,21.6,18.13l267.58-97.39c8.16-2.97,14.11-10.07,15.61-18.62l85.42-486.52c2.17-12.36-9.86-22.42-21.64-18.1ZM470.99,715.17c-1.9,21.65-20.98,37.66-42.63,35.77s-37.66-20.98-35.77-42.63c.44-5.01,1.81-9.71,3.91-13.97.18-.4.37-.8.57-1.2.18-.4.37-.8.57-1.2.18-.4.37-.8.57-1.2.18-.4.37-.8.57-1.2.18-.4.37-.8.57-1.2.18-.4.37-.8.57-1.2.18-.4.37-.8.57-1.2.18-.4.37-.8.57-1.2.18-.4.37-.8.57-1.2.18-.4.37-.8.57-1.2.18-.4.37-.8.57-1.2.18-.4.37-.8.57-1.2.18-.4.37-.8.57-1.2.18-.4.37-.8.57-1.2.18-.4.37-.8.57-1.2.18-.4.37-.8.57-1.2.18-.4.37-.8.57-1.2.18-.4.37-.8.57-1.2.18-.4.37-.8.57-1.2.18-.4.37-.8.57-1.2.18-.4.37-.8.57-1.2.18-.4.37-.8.57-1.2.18-.4.37-.8.57-1.2.18-.4.37-.8.57-1.2.18-.4.37-.8.57-1.19.18-.4.37-.8.57-1.2.18-.4.37-.8.57-1.2.18-.4.37-.8.57-1.2.18-.4.37-.8.57-1.2.18-.4.37-.8.57-1.19.18-.41.37-.8.57-1.2.18-.41.37-.8.57-1.2.18-.4.37-.8.57-1.19.18-.41.37-.8.57-1.2.18-.41.37-.8.57-1.2.22-.51.46-1.02.72-1.51.18-.39.35-.79.55-1.16.18-.4.35-.79.56-1.17.18-.4.35-.79.56-1.17.18-.4.35-.79.56-1.17.18-.4.35-.79.56-1.17.18-.4.35-.79.56-1.17.18-.4.35-.79.56-1.17.18-.4.35-.79.56-1.17.17-.4.35-.79.56-1.17.17-.4.35-.79.56-1.17.17-.4.35-.79.56-1.17.17-.4.35-.79.56-1.17.17-.4.35-.79.56-1.17.17-.4.35-.79.56-1.17.17-.4.35-.79.56-1.17.17-.4.35-.8.56-1.18.17-.41.36-.81.57-1.2.17-.41.36-.81.57-1.19,1.94-4.76,6.81-7.9,12.19-7.42,5.33.48,9.53,4.38,10.63,9.35.14.41.26.83.36,1.26.14.41.26.83.36,1.26.14.41.26.83.36,1.26.14.41.26.83.36,1.26.14.41.26.83.36,1.25.14.41.25.83.36,1.26.14.41.25.83.36,1.26.14.41.25.83.36,1.25.14.41.25.83.36,1.26.14.41.25.83.36,1.25.14.41.25.83.36,1.26.14.41.25.83.36,1.25.14.41.25.83.36,1.25.14.41.25.83.36,1.25.14.41.25.83.36,1.25.14.41.25.83.36,1.25.14.41.25.83.36,1.25.13.39.23.79.34,1.19.17.5.31,1,.44,1.51.14.42.25.85.36,1.28.14.42.25.85.36,1.28.13.42.25.85.36,1.28.13.42.25.85.36,1.28.13.42.25.85.36,1.28.13.42.25.85.36,1.28.13.42.25.85.36,1.28.13.42.25.85.36,1.28.13.42.25.85.36,1.28.13.42.25.85.36,1.28.13.42.25.85.36,1.28.13.42.25.85.36,1.28.13.42.25.85.36,1.28.13.42.25.85.36,1.28.13.42.25.85.36,1.28.13.42.25.85.36,1.28.13.42.25.85.36,1.28.13.42.25.85.36,1.28.13.42.25.85.36,1.28.13.42.25.85.36,1.28.13.42.25.85.36,1.28.13.42.25.85.36,1.28.13.42.25.85.36,1.28.13.42.25.85.36,1.28.13.42.25.85.36,1.28.13.42.25.85.36,1.28.13.42.25.85.36,1.28.13.42.25.85.36,1.28.13.42.25.85.36,1.28.13.42.25.85.36,1.28.13.42.25.85.36,1.28.13.42.25.85.36,1.28.13.42.25.85.36,1.28.13.42.25.85.36,1.28.13.42.25.85.36,1.28,1.38,4.62,1.94,9.58,1.49,14.68Z"/>
  <g>
    <path class="cls-1" d="M1202.07,611.59c11.16-62.76,75.33-114.02,138.84-114.02,68.81,0,110.37,46.03,98.28,114.02-11.16,62.76-75.33,114.02-138.84,114.02-68.81,0-110.37-46.03-98.28-114.02ZM1379.91,611.59c6.14-34.52-13.74-59.63-48.67-59.63s-63.74,25.11-69.89,59.63c-5.95,33.47,14.8,59.62,48.67,59.62s63.93-26.15,69.89-59.62Z"/>
    <path class="cls-1" d="M1171.62,644.63c.94-5.42-5.22-9.14-9.63-5.85-26.62,19.88-58.98,32.13-92.26,32.13-77.29,0-123.71-61.92-110.13-138.3,13.59-76.37,82.04-138.3,159.33-138.3,33.67,0,60.85,11.15,80.18,30.28,4.11,4.07,11.09,1.83,12.09-3.86l9.06-51.36c.62-3.53-1.04-7.1-4.18-8.83-24.03-13.22-53.18-20.93-87.42-20.93-107.57,0-212.81,86.69-231.72,193-20.38,114.56,47.13,192.99,163.06,192.99,32.52,0,62.71-7.19,90.52-20,7.12-3.28,12.19-9.84,13.56-17.57l7.54-43.41Z"/>
    <path class="cls-1" d="M1857.72,497.57c-63.51,0-127.68,51.26-138.84,114.02-12.09,67.99,29.47,114.02,98.28,114.02,31.76,0,62.57-12.55,87.46-33.47h0l6.24-35.38c.73-4.11-2.44-7.89-6.62-7.89h-19.75c-1.87,0-3.67.78-4.93,2.16-1.41,1.55-2.88,3.04-4.41,4.46v.03h0c-18.48,14.64-30,19.88-49.05,19.88-27.21,0-46.41-14.99-51.5-37.69-.72-3.2,1.69-6.25,4.96-6.25h167.28c3.26,0,6.04-2.34,6.62-5.54l2.51-14.11c.03-.15.05-.3.07-.44,8.31-71-29.57-113.8-98.3-113.8ZM1791.62,586.49c-4.11,0-6.5-4.6-4.18-8,13.56-19.9,35.65-33.84,61.9-33.84,27.99,0,45.59,13.91,51.51,35.4.89,3.24-1.56,6.44-4.91,6.44h-104.31Z"/>
    <path class="cls-1" d="M1688.36,360.63c-3.5,1.27-6.05,4.31-6.71,7.98l-24.89,139.94c-.62,3.51-4.64,5.23-7.6,3.26-15.37-10.21-33.36-14.24-52.9-14.24-62.46,0-124.5,51.26-135.67,114.02-12.09,67.99,29.47,114.02,98.28,114.02,63.51,0,127.68-51.26,138.84-114.02l46.73-262.71c.73-4.11-3.27-7.48-7.2-6.05l-48.89,17.79ZM1638.43,611.59c-5.95,33.47-34.95,59.62-69.89,59.62s-54.63-26.15-48.67-59.62c6.14-34.52,36.01-59.62,69.89-59.62s54.81,25.11,48.67,59.62Z"/>
    <path class="cls-1" d="M2030.51,343.13c-3.65,1.33-6.3,4.52-6.94,8.35l-60.4,360.58c-.77,4.34,2.57,8.32,6.97,8.32h44.89c3.43,0,6.37-2.46,6.97-5.84l64.11-382.58c.72-4.31-3.47-7.8-7.58-6.3l-48.03,17.48Z"/>
    <path class="cls-1" d="M2137.79,301.9c-3.66,1.33-6.34,4.5-7.05,8.33l-74.08,401.82c-.77,4.34,2.57,8.32,6.97,8.32h44.89c3.43,0,6.37-2.46,6.97-5.84l78.12-423.81c.8-4.34-3.42-7.9-7.56-6.39l-48.27,17.57Z"/>
  </g>
</svg>