<svg width="254" height="56" viewBox="0 0 254 56" fill="none" xmlns="http://www.w3.org/2000/svg">
  <path d="M216.608 54.9395L194.352 26.3025L215.908 0H231.004L206.725 28.5592V23.5789L231.783 54.9395H216.608ZM183.38 54.9395V0H195.597V54.9395H183.38Z" fill="#49AF33"/>
  <path d="M239.594 16.0303L230.993 26.1465L253.999 54.9395H238.825L216.569 26.3027L224.988 16.0303H239.594ZM244.116 10.7109H229.347L238.125 0H253.222L244.116 10.7109Z" fill="#49AF33"/>
  <path d="M56.0337 16.0303L47.4331 26.1465L70.439 54.9395H55.2651L33.0093 26.3027L41.4282 16.0303H56.0337ZM60.5562 10.7109H45.7866L54.5649 0H69.6616L60.5562 10.7109Z" fill="#49AF33"/>
  <path d="M152.396 55.7955C147.883 55.7955 143.888 54.8357 140.412 52.9162C136.988 50.9967 134.291 48.3509 132.319 44.9788C130.4 41.5548 129.44 37.6639 129.44 33.3061V0H141.735V34.0065C141.735 36.1854 142.202 38.0789 143.136 39.6872C144.07 41.2954 145.341 42.5405 146.949 43.4224C148.609 44.2525 150.425 44.6675 152.396 44.6675C154.471 44.6675 156.287 44.2525 157.843 43.4224C159.4 42.5405 160.619 41.3214 161.501 39.765C162.435 38.1567 162.902 36.2632 162.902 34.0843V0H175.197V33.3839C175.197 37.7417 174.237 41.6067 172.318 44.9788C170.398 48.3509 167.726 50.9967 164.302 52.9162C160.878 54.8357 156.91 55.7955 152.396 55.7955Z" fill="#49AF33"/>
  <path d="M81.4338 54.9395V44.2006H95.0519C98.3721 44.2006 101.277 43.5521 103.767 42.2552C106.258 40.9063 108.177 38.9609 109.526 36.4188C110.875 33.8768 111.549 30.8678 111.549 27.3919C111.549 23.9161 110.849 20.933 109.448 18.4429C108.099 15.9527 106.18 14.0332 103.69 12.6843C101.251 11.3355 98.3721 10.6611 95.0519 10.6611H81.0447V0H95.2075C99.3578 0 103.171 0.674423 106.647 2.02327C110.175 3.32023 113.235 5.2138 115.829 7.70398C118.475 10.1423 120.498 13.0475 121.899 16.4196C123.352 19.7398 124.078 23.4232 124.078 27.4697C124.078 31.4644 123.352 35.1478 121.899 38.5199C120.498 41.892 118.501 44.7972 115.907 47.2355C113.313 49.6738 110.252 51.5674 106.725 52.9162C103.249 54.2651 99.4616 54.9395 95.3632 54.9395H81.4338ZM73.1851 54.9395V0H85.4025V54.9395H73.1851Z" fill="#49AF33"/>
  <path d="M33.2283 54.9395L10.9723 26.3025L32.5279 0H47.6246L23.3454 28.5592V23.5789L48.4027 54.9395H33.2283ZM0 54.9395V0H12.2174V54.9395H0Z" fill="#49AF33"/>
</svg>
